<svg width="180" height="40" viewBox="0 0 180 40" fill="none" xmlns="http://www.w3.org/2000/svg">
<path d="M164.957 39.4997C164.957 39.7759 164.733 39.9997 164.457 39.9997H156.227C155.95 39.9997 155.727 39.7759 155.727 39.4997V9.5454C155.727 9.26926 155.95 9.0454 156.227 9.0454H163.717C163.993 9.0454 164.217 9.26926 164.217 9.5454V12.3768C165.405 9.83198 167.618 8.55957 170.857 8.55957C173.664 8.55957 175.862 9.65462 177.45 11.8447C179.039 14.0194 179.833 16.9883 179.833 20.7516C179.833 24.5148 179.016 27.5069 177.381 29.7279C175.761 31.9488 173.617 33.0593 170.949 33.0593C168.327 33.0593 166.33 32.0568 164.957 30.0518V39.4997ZM164.957 23.9673C164.957 25.0161 165.196 25.8335 165.675 26.4196C166.153 26.9903 166.746 27.2756 167.456 27.2756C168.566 27.2756 169.33 26.7666 169.746 25.7487C170.163 24.7153 170.371 23.1345 170.371 21.0061C170.371 18.5538 170.132 16.8341 169.654 15.847C169.176 14.8445 168.458 14.3433 167.502 14.3433C166.931 14.3433 166.361 14.5669 165.79 15.0142C165.235 15.4614 164.957 16.194 164.957 17.212V23.9673Z" fill="#0049E6"/>
<path d="M151.293 0C151.569 0 151.793 0.223858 151.793 0.5V6.81058C151.793 7.08673 151.569 7.31058 151.293 7.31058H143.062C142.786 7.31058 142.562 7.08673 142.562 6.81058V0.500001C142.562 0.223858 142.786 0 143.062 0H151.293ZM151.293 9.04569C151.569 9.04569 151.793 9.26955 151.793 9.54569V32.0737C151.793 32.3499 151.569 32.5737 151.293 32.5737H143.062C142.786 32.5737 142.562 32.3499 142.562 32.0737V9.54569C142.562 9.26955 142.786 9.04569 143.062 9.04569H151.293Z" fill="#0049E6"/>
<path d="M134.256 32.0731C134.256 32.3492 134.032 32.5731 133.756 32.5731H125.918C125.642 32.5731 125.418 32.3492 125.418 32.0731V9.54503C125.418 9.26889 125.642 9.04503 125.918 9.04503H132.599C132.875 9.04503 133.099 9.26889 133.099 9.54503V13.9033C133.978 10.3714 136.022 8.60547 139.23 8.60547C139.464 8.60547 139.762 8.62157 140.125 8.65376C140.379 8.67634 140.572 8.89153 140.572 9.14687V16.2778C140.572 16.6008 140.27 16.8377 139.952 16.7831C139.549 16.714 139.177 16.6795 138.837 16.6795C135.783 16.6795 134.256 18.3838 134.256 21.7923V32.0731Z" fill="#0049E6"/>
<path d="M118.801 8.56018V32.0741C118.801 32.3502 118.577 32.5741 118.301 32.5741H110.116C109.84 32.5741 109.616 32.3502 109.616 32.0741V8.56018H103.569C103.293 8.56018 103.069 8.33633 103.069 8.06018V1.49512C103.069 1.21898 103.293 0.995117 103.569 0.995117H124.848C125.124 0.995117 125.348 1.21897 125.348 1.49512V8.06018C125.348 8.33633 125.124 8.56018 124.848 8.56018H118.801Z" fill="#0049E6"/>
<path d="M101.065 0C101.341 0 101.565 0.223858 101.565 0.5V6.81058C101.565 7.08673 101.341 7.31058 101.065 7.31058H92.8337C92.5576 7.31058 92.3337 7.08673 92.3337 6.81058V0.500001C92.3337 0.223858 92.5576 0 92.8337 0H101.065ZM101.065 9.04569C101.341 9.04569 101.565 9.26955 101.565 9.54569V32.0737C101.565 32.3499 101.341 32.5737 101.065 32.5737H92.8337C92.5576 32.5737 92.3337 32.3499 92.3337 32.0737V9.54569C92.3337 9.26955 92.5576 9.04569 92.8337 9.04569H101.065Z" fill="#0049E6"/>
<path d="M88.3998 32.0741C88.3998 32.3502 88.176 32.5741 87.8998 32.5741H80.2474C79.9713 32.5741 79.7474 32.3502 79.7474 32.0741V29.4509C78.4673 31.8569 76.3543 33.0599 73.4085 33.0599C70.694 33.0599 68.4885 32.0034 66.792 29.8904C65.1108 27.762 64.2703 24.6774 64.2703 20.6365C64.2703 16.8579 65.1185 13.858 66.8151 11.6371C68.5116 9.41617 70.7557 8.3057 73.5473 8.3057C75.8762 8.3057 77.7964 9.19253 79.3079 10.9662V1.49512C79.3079 1.21898 79.5317 0.995117 79.8079 0.995117H87.8998C88.176 0.995117 88.3998 1.21897 88.3998 1.49512V32.0741ZM79.3079 17.4439C79.3079 15.331 78.4364 14.2745 76.6936 14.2745C75.4752 14.2745 74.6732 14.9454 74.2876 16.2872C73.9175 17.629 73.7324 19.2716 73.7324 21.2149C73.7324 25.0244 74.704 26.9292 76.6474 26.9292C77.3877 26.9292 78.0123 26.6284 78.5213 26.0269C79.0457 25.4254 79.3079 24.5077 79.3079 23.2739V17.4439Z" fill="#0049E6"/>
<path d="M54.015 24.5643C54.0817 24.3193 54.3047 24.1421 54.5581 24.1591L62.14 24.6687C62.4451 24.6892 62.6614 24.9768 62.578 25.271C61.9911 27.3432 60.735 29.1296 58.8098 30.6301C56.7277 32.2496 53.9052 33.0593 50.3425 33.0593C46.3787 33.0593 43.217 31.918 40.8572 29.6353C38.4975 27.3373 37.3176 24.4917 37.3176 21.0986C37.3176 17.5821 38.4821 14.6132 40.811 12.1917C43.1399 9.77029 46.2476 8.55957 50.1343 8.55957C53.8975 8.55957 56.9359 9.70089 59.2494 11.9835C61.5783 14.2661 62.7427 17.3739 62.7427 21.3068C62.7427 21.5322 62.739 21.8172 62.7315 22.162C62.7257 22.4329 62.5038 22.6486 62.2329 22.6486H46.9648C46.9957 24.1293 47.2579 25.232 47.7514 25.9569C48.2449 26.6664 49.1858 27.0211 50.5738 27.0211C52.4219 27.0211 53.5689 26.2022 54.015 24.5643ZM53.512 18.0217C53.4965 16.4331 53.1726 15.3689 52.5403 14.8291C51.9234 14.2739 51.1522 13.9962 50.2268 13.9962C48.0367 13.9962 46.9417 15.3381 46.9417 18.0217H53.512Z" fill="#0049E6"/>
<path d="M33.832 0.995117C34.1081 0.995117 34.332 1.21897 34.332 1.49512V32.0741C34.332 32.3502 34.1081 32.5741 33.832 32.5741H25.8326C25.5564 32.5741 25.3326 32.3502 25.3326 32.0741V9.99454L19.5766 32.1995C19.5194 32.4201 19.3204 32.5741 19.0926 32.5741H13.7091C13.4829 32.5741 13.2848 32.4222 13.2262 32.2037L7.26431 9.99454V32.0741C7.26431 32.3502 7.04046 32.5741 6.76431 32.5741H0.5C0.223858 32.5741 0 32.3502 0 32.0741V1.49512C0 1.21898 0.223858 0.995117 0.5 0.995117H12.273C12.4984 0.995117 12.6959 1.14594 12.7553 1.36339L17.2354 17.7678L21.5104 1.36899C21.5678 1.14878 21.7667 0.995117 21.9942 0.995117H33.832Z" fill="#0049E6"/>
</svg>
